<svg xmlns="http://www.w3.org/2000/svg" version="1.0" width="3509.000000pt" height="724.000000pt" viewBox="0 0 3509.000000 724.000000" preserveAspectRatio="xMidYMid meet">

<g transform="translate(0.000000,724.000000) scale(0.100000,-0.100000)" fill="#1da6e2" stroke="none">
<path d="M5821 6174 c-183 -29 -385 -109 -553 -221 -102 -67 -273 -239 -342 -346 -73 -109 -128 -235 -162 -364 l-26 -100 -152 -22 c-197 -28 -502 -90 -750 -153 -378 -94 -693 -208 -1004 -363 -537 -267 -839 -538 -960 -858 -48 -128 -62 -204 -62 -344 0 -310 123 -569 398 -834 298 -288 688 -511 1210 -690 660 -226 1510 -411 2409 -524 l53 -7 51 -96 c111 -207 242 -384 343 -461 161 -124 335 -143 478 -52 75 48 169 211 232 401 l33 103 89 -3 c49 -1 142 -5 208 -9 l118 -6 18 -70 c37 -145 104 -292 165 -362 44 -52 140 -100 215 -109 147 -17 313 73 451 243 56 70 213 300 221 325 2 5 111 21 243 34 1212 123 2429 351 3398 636 208 62 280 92 105 44 -516 -140 -1394 -296 -2163 -385 -591 -68 -1475 -139 -1475 -117 0 3 32 75 71 159 110 234 119 257 106 257 -6 0 -68 -14 -137 -30 l-125 -31 -92 -189 -92 -190 -363 0 -364 0 -33 188 c-128 723 -137 761 -197 818 -76 73 -257 73 -330 0 -40 -40 -43 -50 -110 -411 -30 -165 -68 -358 -83 -430 l-27 -130 -64 3 c-101 5 -357 29 -556 53 l-181 22 -88 186 c-196 412 -448 978 -580 1301 -226 552 -359 1015 -411 1427 -23 181 -23 481 0 598 102 518 417 817 933 886 55 7 149 9 248 6 176 -6 296 -29 460 -87 153 -54 432 -201 420 -220 -9 -15 -156 -58 -252 -75 -49 -9 -144 -19 -213 -23 l-125 -7 65 -31 c85 -42 148 -54 275 -54 112 0 257 24 365 60 81 27 248 108 407 198 273 154 527 224 813 225 222 0 420 -44 580 -129 35 -19 69 -34 75 -34 32 -1 274 57 272 65 -2 6 -43 40 -91 76 -150 115 -336 194 -546 235 -129 24 -434 25 -570 0 -230 -41 -441 -118 -654 -240 -201 -115 -188 -114 -336 -28 -356 208 -688 304 -1045 301 -66 -1 -162 -8 -214 -15z m-1115 -1406 c0 -215 16 -350 70 -618 120 -588 396 -1308 937 -2453 l46 -97 -42 6 c-188 28 -598 113 -817 170 -765 199 -1380 483 -1665 768 -232 232 -355 524 -355 841 0 191 36 343 119 502 60 114 125 195 264 329 307 296 681 505 1244 694 98 33 183 60 188 60 7 0 11 -69 11 -202z m2601 -2896 c40 -213 73 -395 73 -404 0 -21 -42 -23 -213 -11 l-99 6 5 26 c9 53 128 678 138 729 6 30 14 51 17 47 3 -3 39 -180 79 -393z m-790 -585 l262 -22 -29 -88 c-55 -163 -114 -251 -175 -263 -68 -12 -174 56 -269 174 -54 66 -146 208 -146 224 0 5 21 6 48 2 26 -3 165 -16 309 -27z m1693 -45 c0 -13 -92 -141 -141 -196 -64 -72 -151 -126 -205 -126 -68 0 -104 39 -152 163 -64 165 -72 147 60 148 62 1 167 5 233 9 188 10 205 11 205 2z" fill="#1da6e2"/>
<path d="M13870 4420 l0 -1200 738 0 c463 0 779 4 848 11 421 42 670 231 715 542 7 52 7 95 -2 154 -38 273 -266 450 -606 470 -151 9 -137 27 30 41 233 20 381 76 498 192 208 205 211 536 5 744 -95 98 -254 176 -441 219 -86 20 -123 21 -937 24 l-848 4 0 -1201z m1605 776 c126 -36 208 -93 245 -173 18 -39 21 -60 18 -127 -4 -94 -22 -138 -79 -195 -43 -43 -100 -73 -187 -98 -49 -14 -130 -17 -589 -21 l-533 -3 0 321 0 322 533 -4 c465 -4 540 -7 592 -22z m-73 -970 c131 -28 219 -88 256 -175 8 -21 15 -68 16 -111 1 -63 -4 -84 -27 -132 -30 -61 -80 -108 -143 -134 -93 -39 -169 -44 -670 -44 l-484 0 0 305 0 305 493 0 c385 0 506 -3 559 -14z" fill="#1da6e2"/>
<path d="M8695 5143 c-193 -24 -403 -111 -620 -256 -278 -187 -533 -403 -855 -726 -425 -426 -733 -797 -1044 -1258 -110 -164 -137 -215 -121 -231 9 -10 411 -8 455 1 32 8 48 28 218 285 196 297 335 492 352 492 6 0 11 -138 12 -392 l3 -393 605 3 c661 4 698 7 838 63 288 115 524 416 588 749 33 173 28 373 -16 545 -27 110 -115 283 -192 378 -129 159 -303 267 -508 313 -63 14 -117 28 -120 31 -14 14 184 135 285 174 158 61 269 73 378 39 123 -38 211 -125 289 -285 49 -100 49 -100 43 -50 -9 71 -31 138 -78 229 -108 210 -297 316 -512 289z m-424 -967 c172 -37 303 -161 350 -334 38 -133 18 -320 -44 -422 -32 -53 -103 -126 -156 -159 -87 -56 -131 -62 -497 -59 l-329 3 2 430 c1 289 5 440 13 460 6 17 25 45 43 63 l31 32 260 0 c186 0 280 -4 327 -14z" fill="#1da6e2"/>
<path d="M27104 5124 c-271 -45 -528 -196 -680 -398 -215 -285 -237 -723 -53 -1033 19 -31 71 -95 116 -143 162 -171 353 -272 626 -332 90 -20 131 -22 337 -22 206 0 248 3 340 23 133 28 288 80 379 126 l71 35 0 205 0 205 -38 -24 c-116 -73 -313 -143 -480 -171 -144 -24 -421 -16 -536 15 -151 41 -282 118 -359 212 -41 49 -91 147 -102 196 l-7 32 846 0 846 0 0 108 c0 135 -13 212 -53 332 -115 337 -408 573 -788 635 -115 18 -353 18 -465 -1z m425 -348 c127 -34 240 -118 313 -230 34 -54 78 -166 78 -202 0 -12 -93 -14 -599 -14 l-599 0 13 51 c21 80 64 155 126 222 89 97 219 164 361 186 79 12 236 5 307 -13z" fill="#1da6e2"/>
<path d="M9775 5099 c758 -179 1161 -308 1540 -494 269 -132 476 -290 575 -438 78 -116 100 -260 60 -389 -90 -292 -538 -597 -1135 -774 -430 -127 -999 -225 -1640 -283 -217 -20 -502 -41 -552 -41 -15 0 -24 -2 -22 -4 2 -3 167 -10 365 -16 1023 -33 1979 70 2594 279 383 130 620 269 830 487 256 266 316 498 193 744 -29 59 -61 98 -143 181 -194 197 -409 314 -825 449 -516 167 -1076 268 -1720 310 -199 13 -215 11 -120 -11z" fill="#1da6e2"/>
<path d="M22093 5109 c-171 -22 -347 -95 -474 -196 -233 -186 -357 -498 -335 -843 18 -280 106 -482 284 -652 187 -179 406 -255 707 -245 174 5 231 18 360 81 84 42 225 146 225 167 0 5 5 9 10 9 6 0 10 -47 10 -120 l0 -120 210 0 210 0 0 955 0 955 -220 0 -220 0 0 -115 0 -115 -72 59 c-185 151 -431 215 -695 180z m352 -384 c185 -47 326 -181 392 -372 23 -68 27 -94 27 -203 1 -205 -44 -329 -164 -450 -113 -112 -234 -160 -408 -160 -154 0 -271 44 -376 140 -74 69 -118 136 -153 237 -24 70 -27 92 -28 218 0 160 20 245 81 347 69 113 203 211 332 242 77 19 224 19 297 1z" fill="#1da6e2"/>
<path d="M16680 4165 l0 -945 308 0 307 1 469 739 c257 407 474 740 482 740 12 0 14 -114 14 -740 l0 -740 235 0 235 0 0 945 0 945 -302 0 -303 -1 -470 -741 c-258 -408 -476 -743 -482 -746 -10 -3 -13 150 -13 742 l0 746 -240 0 -240 0 0 -945z" fill="#1da6e2"/>
<path d="M19000 4915 l0 -195 415 0 415 0 0 -750 0 -750 240 0 240 0 0 750 0 750 415 0 415 0 0 195 0 195 -1070 0 -1070 0 0 -195z" fill="#1da6e2"/>
<path d="M24007 4703 c-4 -312 -9 -434 -21 -517 -32 -207 -108 -458 -166 -550 l-30 -46 -120 0 -120 0 0 -185 0 -185 1245 0 1245 0 0 185 0 185 -150 0 -150 0 0 760 0 760 -864 0 -864 0 -5 -407z m1243 -543 l0 -570 -486 0 -486 0 5 28 c3 15 21 63 40 107 97 215 157 548 157 861 l0 144 385 0 385 0 0 -570z" fill="#1da6e2"/>
<path d="M28820 4165 l0 -945 235 0 235 0 0 390 0 390 555 0 555 0 0 -390 0 -390 240 0 240 0 0 945 0 945 -240 0 -240 0 0 -360 0 -360 -555 0 -555 0 0 360 0 360 -235 0 -235 0 0 -945z" fill="#1da6e2"/>
<path d="M31140 4915 l0 -195 415 0 415 0 0 -750 0 -750 240 0 240 0 0 750 0 750 420 0 420 0 0 195 0 195 -1075 0 -1075 0 0 -195z" fill="#1da6e2"/>
<path d="M5033 4723 c3 -5 74 -120 158 -258 84 -137 274 -452 422 -700 323 -540 455 -756 471 -773 9 -10 41 31 151 195 373 556 785 1045 1206 1434 59 54 104 100 101 103 -3 3 -125 6 -271 6 -242 0 -269 -2 -296 -19 -20 -12 -80 -97 -175 -247 -149 -237 -462 -722 -492 -763 -9 -13 -20 -21 -25 -18 -5 3 -157 240 -338 526 l-330 520 -293 1 c-161 0 -291 -3 -289 -7z" fill="#1da6e2"/>
<path d="M14044 2044 c-56 -20 -111 -75 -143 -143 -22 -49 -26 -69 -26 -156 0 -119 18 -182 71 -244 49 -56 104 -83 185 -89 115 -8 205 40 253 135 27 53 22 73 -18 73 -30 0 -37 -5 -58 -42 -58 -106 -202 -129 -287 -46 -58 57 -66 81 -66 203 0 102 2 113 28 157 65 112 214 133 299 42 15 -16 31 -41 37 -56 9 -23 16 -28 46 -28 29 0 35 4 35 20 0 60 -86 157 -159 178 -52 16 -147 14 -197 -4z" fill="#1da6e2"/>
<path d="M14690 2020 l0 -40 95 0 95 0 0 -280 0 -280 45 0 45 0 0 280 0 279 98 3 97 3 0 35 0 35 -237 3 -238 2 0 -40z" fill="#1da6e2"/>
<path d="M15584 2036 c-104 -49 -158 -149 -158 -296 0 -196 93 -316 253 -328 134 -9 235 53 281 174 19 51 21 74 18 164 -6 158 -48 236 -153 286 -69 33 -170 33 -241 0z m233 -82 c52 -41 81 -104 89 -190 16 -178 -86 -301 -231 -279 -64 9 -136 79 -153 147 -25 99 -9 222 37 286 54 77 184 95 258 36z" fill="#1da6e2"/>
<path d="M16307 2054 c-4 -4 -7 -148 -7 -321 l0 -313 40 0 40 0 0 243 1 242 101 -242 100 -243 37 0 37 0 93 223 c51 122 96 229 101 237 6 10 10 -72 10 -222 l0 -238 35 0 35 0 0 321 0 320 -47 -3 -47 -3 -105 -262 c-58 -145 -108 -263 -111 -263 -3 0 -53 118 -111 263 l-107 262 -44 3 c-24 2 -47 0 -51 -4z" fill="#1da6e2"/>
<path d="M17449 2033 c-6 -16 -57 -154 -114 -308 -57 -154 -106 -288 -110 -297 -6 -16 -1 -18 36 -18 l44 0 31 88 31 87 129 3 129 3 31 -88 31 -88 42 -3 c22 -2 41 -1 41 2 0 7 -202 558 -223 609 -14 33 -20 37 -52 37 -30 0 -37 -5 -46 -27z m101 -220 c25 -70 47 -130 48 -135 2 -4 -42 -8 -97 -8 -56 0 -101 2 -101 4 0 14 94 266 99 266 3 0 26 -57 51 -127z" fill="#1da6e2"/>
<path d="M17957 2053 c-4 -3 -7 -21 -7 -40 l0 -33 100 0 100 0 0 -280 0 -280 40 0 40 0 0 280 0 280 100 0 100 0 0 40 0 40 -233 0 c-129 0 -237 -3 -240 -7z" fill="#1da6e2"/>
<path d="M18866 2045 c-59 -21 -108 -66 -141 -130 -28 -55 -30 -65 -30 -174 0 -141 20 -197 96 -265 58 -52 116 -71 202 -64 106 9 184 64 229 163 32 72 32 235 -1 317 -26 68 -98 138 -159 156 -52 16 -148 14 -196 -3z m195 -78 c29 -16 54 -40 74 -72 28 -46 30 -54 30 -154 0 -91 -3 -113 -24 -154 -63 -128 -237 -142 -321 -25 -52 72 -61 239 -17 325 50 94 163 130 258 80z" fill="#1da6e2"/>
<path d="M19650 2048 c-1 -7 -5 -112 -9 -234 -7 -189 -11 -227 -29 -267 -19 -42 -25 -47 -61 -53 -39 -6 -41 -9 -41 -40 0 -33 1 -34 43 -34 113 0 167 109 167 336 0 45 3 115 6 157 l7 77 113 0 114 0 0 -285 0 -285 40 0 40 0 0 320 0 320 -195 0 c-149 0 -195 -3 -195 -12z" fill="#1da6e2"/>
<path d="M20542 2048 c-52 -18 -126 -91 -153 -150 -30 -69 -34 -225 -6 -304 22 -63 76 -128 131 -157 56 -30 192 -31 250 -3 96 48 146 135 154 269 9 155 -37 266 -134 323 -39 23 -61 28 -128 30 -45 2 -96 -2 -114 -8z m188 -78 c77 -39 111 -111 112 -242 1 -71 -2 -90 -26 -135 -38 -75 -90 -108 -171 -108 -51 0 -69 5 -102 28 -62 43 -86 96 -91 197 -5 95 7 150 41 201 50 74 156 100 237 59z" fill="#1da6e2"/>
<path d="M21247 2053 c-4 -3 -7 -147 -7 -320 l0 -313 40 0 40 0 0 280 0 280 155 0 155 0 0 40 0 40 -188 0 c-104 0 -192 -3 -195 -7z" fill="#1da6e2"/>
<path d="M21940 1740 l0 -320 39 0 40 0 155 224 c86 123 165 234 175 247 l20 24 1 -247 0 -248 40 0 40 0 -2 318 -3 317 -36 3 -36 3 -174 -252 -174 -251 -3 251 -2 251 -40 0 -40 0 0 -320z" fill="#1da6e2"/>
<path d="M22792 1918 c4 -168 15 -199 88 -235 37 -19 61 -23 140 -23 52 0 110 4 128 9 l32 10 0 -130 0 -129 40 0 40 0 -2 318 -3 317 -37 3 -38 3 0 -159 0 -159 -31 -7 c-17 -3 -71 -6 -120 -6 -84 0 -90 2 -121 29 l-33 29 -3 136 -4 136 -40 0 -40 0 4 -142z" fill="#1da6e2"/>
<path d="M23610 1740 l0 -320 195 0 195 0 0 35 0 35 -155 0 -155 0 0 105 0 105 145 0 145 0 0 35 0 35 -145 0 -145 0 0 105 0 105 156 0 155 0 -3 38 -3 37 -192 3 -193 2 0 -320z" fill="#1da6e2"/>
<path d="M24482 2047 c-52 -16 -126 -89 -153 -149 -30 -69 -33 -225 -6 -304 22 -63 76 -128 131 -156 57 -29 159 -35 224 -14 75 25 152 114 152 177 0 15 -7 19 -35 19 -30 0 -37 -5 -46 -27 -33 -88 -153 -137 -242 -100 -51 22 -102 86 -117 147 -17 72 -9 186 19 242 53 110 199 143 288 65 20 -17 42 -46 50 -64 11 -28 18 -33 46 -33 44 0 47 4 34 48 -16 51 -103 137 -153 151 -48 13 -148 13 -192 -2z" fill="#1da6e2"/>
<path d="M25157 2053 c-4 -3 -7 -147 -7 -320 l0 -313 40 0 40 0 0 145 0 145 39 0 c38 0 40 -2 147 -145 l108 -145 48 0 48 0 -118 158 c-65 86 -125 167 -132 179 -13 20 -7 29 101 145 158 170 151 158 97 158 -45 0 -46 0 -174 -137 -71 -76 -136 -139 -146 -141 -17 -3 -18 8 -18 137 l0 141 -33 0 c-19 0 -37 -3 -40 -7z" fill="#1da6e2"/>
<path d="M26079 2033 c-6 -16 -57 -154 -114 -308 -57 -154 -106 -288 -110 -297 -6 -16 -1 -18 36 -18 l44 0 31 88 31 87 129 3 129 3 31 -88 31 -88 42 -3 c22 -2 41 -1 41 2 0 7 -202 558 -223 609 -14 33 -20 37 -52 37 -30 0 -37 -5 -46 -27z m101 -220 c25 -70 47 -130 48 -135 2 -4 -42 -8 -97 -8 -56 0 -101 2 -101 4 0 14 94 266 99 266 3 0 26 -57 51 -127z" fill="#1da6e2"/>
<path d="M26852 2049 c-101 -20 -155 -84 -156 -183 -1 -73 25 -131 72 -161 17 -11 31 -24 32 -28 0 -4 -29 -61 -65 -126 -36 -64 -65 -120 -65 -124 0 -4 20 -7 43 -7 l44 0 65 123 66 122 76 3 75 3 3 -123 3 -123 40 0 40 0 0 315 0 315 -115 2 c-63 0 -134 -3 -158 -8z m198 -190 l0 -121 -111 4 c-107 3 -112 4 -135 31 -19 22 -24 39 -24 83 0 101 32 123 178 124 l92 0 0 -121z" fill="#1da6e2"/>
<path d="M27910 1740 l0 -320 40 0 40 0 0 145 0 145 38 0 c36 -1 40 -5 146 -145 l109 -145 49 0 48 0 -118 158 c-65 86 -125 167 -132 179 -13 20 -7 29 101 145 158 170 151 158 97 158 -45 0 -45 0 -174 -139 -71 -77 -137 -140 -146 -140 -16 -1 -18 12 -18 139 l0 140 -40 0 -40 0 0 -320z" fill="#1da6e2"/>
<path d="M28755 2048 c-2 -7 -9 -110 -15 -229 -14 -276 -23 -309 -91 -324 -25 -6 -29 -11 -29 -42 l0 -36 50 5 c59 6 93 32 121 94 21 47 39 217 39 377 l0 97 115 0 115 0 0 -285 0 -285 45 0 45 0 -2 318 -3 317 -193 3 c-149 2 -193 0 -197 -10z" fill="#1da6e2"/>
<path d="M29487 2053 c-4 -3 -7 -148 -7 -320 l0 -314 42 3 43 3 170 244 170 244 3 -246 2 -247 40 0 40 0 0 320 0 320 -33 0 c-43 0 -43 0 -222 -260 -81 -118 -154 -222 -161 -230 -12 -12 -14 23 -14 238 l0 252 -33 0 c-19 0 -37 -3 -40 -7z" fill="#1da6e2"/>
<path d="M30337 2054 c-4 -4 -7 -148 -7 -321 l0 -313 45 0 45 0 0 140 0 140 165 0 165 0 0 -140 0 -140 40 0 40 0 0 320 0 320 -40 0 -40 0 0 -145 0 -145 -165 0 -164 0 -3 143 -3 142 -35 3 c-20 2 -39 0 -43 -4z" fill="#1da6e2"/>
<path d="M31177 2053 c-4 -3 -7 -148 -7 -320 l0 -314 42 3 43 3 170 244 170 244 3 -247 2 -246 40 0 40 0 0 320 0 320 -33 0 c-43 0 -43 0 -222 -260 -81 -118 -154 -222 -161 -230 -12 -12 -14 23 -14 238 l0 252 -33 0 c-19 0 -37 -3 -40 -7z" fill="#1da6e2"/>
<path d="M32027 2054 c-4 -4 -7 -148 -7 -321 l0 -313 45 0 45 0 0 145 0 145 34 0 c32 0 40 -8 142 -145 l108 -145 49 0 c36 0 46 3 41 13 -4 6 -53 73 -109 147 -55 74 -110 149 -122 165 l-21 30 124 135 c68 74 124 138 124 143 0 4 -19 7 -43 7 -43 0 -45 -1 -172 -140 -70 -77 -134 -140 -141 -140 -10 0 -14 31 -16 138 l-3 137 -35 3 c-20 2 -39 0 -43 -4z" fill="#1da6e2"/>
<path d="M32953 2043 c-4 -10 -57 -154 -119 -320 l-111 -303 42 0 43 0 32 90 33 91 126 -3 126 -3 34 -87 34 -88 42 0 43 0 -73 198 c-40 108 -93 251 -117 317 l-44 120 -42 3 c-33 3 -44 -1 -49 -15z m102 -228 c26 -75 45 -138 43 -141 -3 -3 -48 -3 -100 -2 l-94 3 49 138 c28 75 51 137 52 137 1 0 24 -61 50 -135z" fill="#1da6e2"/>
</g>
</svg>